<svg width="20" height="20" viewBox="0 0 20 20" fill="none" xmlns="http://www.w3.org/2000/svg">
<path d="M18.4664 20C19.0621 20 19.5451 19.5058 19.5451 18.8962V1.10382C19.5451 0.494139 19.0621 0 18.4664 0H1.07872C0.482825 0 0 0.494139 0 1.10382V18.8962C0 19.5058 0.482825 20 1.07872 20H18.4664Z" fill="#395185"/>
<path d="M13.4855 19.9999V12.2549H16.0262L16.4065 9.23654H13.4855V7.30936C13.4855 6.43546 13.7227 5.83992 14.9474 5.83992L16.5094 5.83921V3.13961C16.2392 3.10282 15.312 3.02063 14.2333 3.02063C11.9812 3.02063 10.4395 4.42726 10.4395 7.01054V9.23654H7.89233V12.2549H10.4395V19.9999H13.4855Z" fill="white"/>
</svg>
