<svg width="20" height="20" viewBox="0 0 20 20" fill="none" xmlns="http://www.w3.org/2000/svg">
<path d="M4.3882 8.13749C4.7781 6.95787 5.53058 5.93151 6.5383 5.20483C7.54601 4.47815 8.75747 4.08828 9.99986 4.09083C11.4082 4.09083 12.6815 4.59083 13.6815 5.40916L16.5915 2.5C14.8182 0.954166 12.5457 0 9.99986 0C6.0582 0 2.66487 2.24833 1.0332 5.54166L4.3882 8.13749Z" fill="#EA4335"/>
<path d="M13.3668 15.0108C12.4585 15.5966 11.3052 15.9091 10.0002 15.9091C8.76273 15.9117 7.55584 15.5249 6.55037 14.8036C5.5449 14.0823 4.79179 13.063 4.39767 11.89L1.03101 14.4458C1.85704 16.1177 3.13539 17.5244 4.72086 18.5062C6.30632 19.488 8.13534 20.0055 10.0002 19.9999C12.4443 19.9999 14.7793 19.1308 16.5285 17.5L13.3677 15.0108H13.3668Z" fill="#34A853"/>
<path d="M16.5283 17.5C18.3575 15.7933 19.545 13.2533 19.545 9.99997C19.545 9.40831 19.4542 8.77247 19.3183 8.18164H10V12.0458H15.3633C15.0992 13.345 14.3883 14.3508 13.3675 15.0108L16.5283 17.5Z" fill="#4A90E2"/>
<path d="M4.39759 11.89C4.19372 11.2807 4.09015 10.6424 4.09093 9.99996C4.09093 9.34829 4.19509 8.72246 4.38843 8.13746L1.03343 5.54163C0.347078 6.9272 -0.00673328 8.45372 9.70454e-05 9.99996C9.70454e-05 11.6 0.37093 13.1083 1.03093 14.4458L4.39759 11.89Z" fill="#FBBC05"/>
</svg>
