<svg width="20" height="13" viewBox="0 0 20 13" fill="none" xmlns="http://www.w3.org/2000/svg">
<path d="M9.99833 4.37234C11.0895 4.37234 12.1361 4.80583 12.9077 5.57743C13.6793 6.34903 14.1127 7.39555 14.1127 8.48676C14.1127 9.57797 13.6793 10.6245 12.9077 11.3961C12.1361 12.1677 11.0895 12.6012 9.99833 12.6012C8.90712 12.6012 7.8606 12.1677 7.089 11.3961C6.3174 10.6245 5.88392 9.57797 5.88392 8.48676C5.88392 7.39555 6.3174 6.34903 7.089 5.57743C7.8606 4.80583 8.90712 4.37234 9.99833 4.37234ZM9.99833 0.76709C14.7433 0.76709 18.8402 4.00719 19.9768 8.54745C20.0266 8.74591 19.9955 8.95602 19.8904 9.13156C19.7852 9.3071 19.6147 9.43369 19.4162 9.48347C19.2178 9.53326 19.0076 9.50217 18.8321 9.39704C18.6566 9.29191 18.53 9.12135 18.4802 8.92289C18.0047 7.03314 16.9118 5.35631 15.3748 4.15844C13.8378 2.96057 11.9448 2.31028 9.99621 2.31075C8.04757 2.31123 6.1549 2.96243 4.61851 4.16105C3.08211 5.35966 1.98999 7.03703 1.51544 8.927C1.46215 9.12133 1.33493 9.2871 1.161 9.38886C0.987071 9.49061 0.780229 9.52027 0.584713 9.47149C0.389197 9.42271 0.220527 9.29937 0.114775 9.12784C0.00902321 8.95631 -0.0254159 8.75021 0.0188227 8.55362C0.576607 6.32922 1.86152 4.35492 3.66955 2.9442C5.47757 1.53349 7.70506 0.767228 9.99833 0.76709Z" fill="#015A6B"/>
</svg>
