<svg width="20" height="21" viewBox="0 0 20 21" fill="none" xmlns="http://www.w3.org/2000/svg">
<path d="M0.219735 0.988744C0.0927157 1.11707 0.0154868 1.2872 0.00209015 1.4682C-0.0113065 1.6492 0.040019 1.82904 0.146734 1.97504L0.219735 2.05992L4.25378 6.13749C2.28679 7.53066 0.882628 9.59361 0.298736 11.9481C0.253714 12.142 0.285974 12.3459 0.388542 12.5159C0.49111 12.6859 0.655749 12.8083 0.846878 12.8566C1.03801 12.9049 1.24027 12.8753 1.40997 12.7741C1.57966 12.673 1.70315 12.5084 1.75375 12.316C2.27266 10.2262 3.55067 8.41016 5.33379 7.22888L7.14381 9.05797C6.42079 9.82143 6.02239 10.8407 6.03392 11.8973C6.04545 12.954 6.46601 13.9641 7.20551 14.7113C7.94501 15.4584 8.94465 15.8832 9.99031 15.8947C11.036 15.9062 12.0445 15.5034 12.7999 14.7726L18.7189 20.7551C18.8528 20.8907 19.0324 20.9701 19.2218 20.9773C19.4112 20.9844 19.5963 20.9189 19.7398 20.7939C19.8833 20.6688 19.9747 20.4934 19.9955 20.3031C20.0163 20.1127 19.965 19.9215 19.8519 19.7678L19.7789 19.6829L13.6659 13.5044L13.6669 13.5024L6.7168 6.48309L6.7188 6.48107L5.58579 5.33915L1.27975 0.988744C1.13912 0.846812 0.948493 0.76709 0.74974 0.76709C0.550987 0.76709 0.360362 0.846812 0.219735 0.988744ZM9.99984 4.30334C8.99983 4.30334 8.02982 4.4529 7.11081 4.73282L8.34782 5.98186C10.4874 5.55375 12.7079 5.97285 14.5504 7.15251C16.3928 8.33217 17.7162 10.1822 18.2469 12.32C18.2987 12.5109 18.4224 12.6738 18.5915 12.7738C18.7606 12.8737 18.9617 12.9029 19.1518 12.855C19.3419 12.807 19.5058 12.6859 19.6087 12.5173C19.7115 12.3488 19.7449 12.1463 19.7019 11.9532C19.1597 9.76784 17.9105 7.82819 16.1527 6.44224C14.3949 5.05629 12.2294 4.30348 9.99984 4.30334ZM10.1948 7.85037L13.9959 11.6904C13.9467 10.6879 13.5304 9.7396 12.8279 9.0299C12.1255 8.3202 11.187 7.89979 10.1948 7.85037Z" fill="#015A6B"/>
</svg>
